# xmcd
#
# Track frame offsets:
#	150
#	20895
#	40760
#	58615
#	76250
#	96488
#	114025
#	133278
#	152223
#	176623
#	196913
#	219573
#
# Disc length: 3119 seconds
#
# Revision: 1
# Processed by: cddbd v1.4PL0 Copyright (c) Steve Scherf et al.
# Submitted via: audiograbber 1.81.01
#
DISCID=a40c2d0c
DTITLE=Eileen Farrell - It's Over
DYEAR=1900
DGENRE=
TTITLE0=I Get The Blues When It Rains
TTITLE1=How About Me?
TTITLE2=I'm Through With Love
TTITLE3=I'll Remember April
TTITLE4=Easy To Remember
TTITLE5=Whenever A Soft Rain Falls
TTITLE6=Where Do You Start?
TTITLE7=Gone With The Wind
TTITLE8=The Shining Sea
TTITLE9=I'm So Lost
TTITLE10=Lush Life
TTITLE11=By Myself
EXTD=
EXTT0=
EXTT1=
EXTT2=
EXTT3=
EXTT4=
EXTT5=
EXTT6=
EXTT7=
EXTT8=
EXTT9=
EXTT10=
EXTT11=
PLAYORDER=
